<svg width="91" height="90" viewBox="0 0 91 90" fill="none" xmlns="http://www.w3.org/2000/svg">
<path d="M66.5937 61.875H24.4062C19.8961 61.8464 15.5557 60.1516 12.2196 57.1165C8.88348 54.0813 6.78708 49.9201 6.33346 45.4327C5.87984 40.9454 7.10103 36.4488 9.76224 32.8074C12.4234 29.1659 16.3368 26.6368 20.75 25.7062C21.9641 20.0433 25.0836 14.968 29.5877 11.3272C34.0919 7.68641 39.7083 5.70032 45.5 5.70032C51.2916 5.70032 56.9081 7.68641 61.4122 11.3272C65.9164 14.968 69.0358 20.0433 70.25 25.7062C74.6631 26.6368 78.5765 29.1659 81.2377 32.8074C83.8989 36.4488 85.1201 40.9454 84.6665 45.4327C84.2129 49.9201 82.1165 54.0813 78.7803 57.1165C75.4442 60.1516 71.1038 61.8464 66.5937 61.875ZM45.5 11.25C40.7008 11.2547 36.0686 13.0123 32.4742 16.1924C28.8799 19.3724 26.5708 23.7559 25.9812 28.5187L25.8125 30.9375H23.3937C20.0371 31.0717 16.8712 32.5339 14.5927 35.0024C12.3141 37.4708 11.1095 40.7433 11.2437 44.1C11.378 47.4566 12.8402 50.6224 15.3086 52.901C17.7771 55.1796 21.0496 56.3842 24.4062 56.25H66.5937C69.9504 56.3842 73.2229 55.1796 75.6913 52.901C78.1598 50.6224 79.622 47.4566 79.7562 44.1C79.8905 40.7433 78.6858 37.4708 76.4073 35.0024C74.1287 32.5339 70.9629 31.0717 67.6062 30.9375H65.1875L64.9062 28.6312C64.3444 23.8671 62.0625 19.4721 58.4892 16.2716C54.9158 13.0712 50.2969 11.2855 45.5 11.25ZM39.875 84.375C39.4338 84.3802 38.9984 84.2738 38.6093 84.0656C37.9469 83.7284 37.4449 83.1427 37.213 82.4365C36.9812 81.7303 37.0382 80.9611 37.3718 80.2968L42.9968 69.0468C43.1455 68.6898 43.3662 68.3673 43.6452 68.0994C43.9242 67.8315 44.2554 67.624 44.6182 67.4899C44.9809 67.3559 45.3674 67.298 45.7536 67.3201C46.1397 67.3421 46.5171 67.4436 46.8623 67.6181C47.2074 67.7926 47.5129 68.0364 47.7595 68.3343C48.0062 68.6322 48.1887 68.9778 48.2958 69.3494C48.4029 69.7211 48.4321 70.1108 48.3818 70.4943C48.3314 70.8777 48.2025 71.2467 48.0031 71.5781L42.3781 82.8281C42.1444 83.2919 41.7868 83.6819 41.345 83.955C40.9031 84.228 40.3943 84.3734 39.875 84.375ZM56.75 84.375C56.3088 84.3802 55.8734 84.2738 55.4843 84.0656C54.8219 83.7284 54.3199 83.1427 54.088 82.4365C53.8562 81.7303 53.9132 80.9611 54.2468 80.2968L59.8718 69.0468C60.0205 68.6898 60.2412 68.3673 60.5202 68.0994C60.7992 67.8315 61.1304 67.624 61.4932 67.4899C61.8559 67.3559 62.2425 67.298 62.6286 67.3201C63.0147 67.3421 63.3921 67.4436 63.7373 67.6181C64.0824 67.7926 64.3879 68.0364 64.6345 68.3343C64.8812 68.6322 65.0637 68.9778 65.1708 69.3494C65.2779 69.7211 65.3071 70.1108 65.2568 70.4943C65.2064 70.8777 65.0775 71.2467 64.8781 71.5781L59.2531 82.8281C59.0194 83.2919 58.6618 83.6819 58.22 83.955C57.7781 84.228 57.2693 84.3734 56.75 84.375ZM23 84.375C22.5588 84.3802 22.1234 84.2738 21.7343 84.0656C21.0719 83.7284 20.5699 83.1427 20.338 82.4365C20.1062 81.7303 20.1632 80.9611 20.4968 80.2968L26.1218 69.0468C26.2705 68.6898 26.4912 68.3673 26.7702 68.0994C27.0492 67.8315 27.3804 67.624 27.7432 67.4899C28.1059 67.3559 28.4924 67.298 28.8786 67.3201C29.2647 67.3421 29.6421 67.4436 29.9873 67.6181C30.3324 67.7926 30.6379 68.0364 30.8845 68.3343C31.1312 68.6322 31.3137 68.9778 31.4208 69.3494C31.5279 69.7211 31.5571 70.1108 31.5068 70.4943C31.4564 70.8777 31.3275 71.2467 31.1281 71.5781L25.5031 82.8281C25.2694 83.2919 24.9118 83.6819 24.47 83.955C24.0281 84.228 23.5193 84.3734 23 84.375Z" fill="white"/>
</svg>
