<svg width="87" height="82" viewBox="0 0 87 82" fill="none" xmlns="http://www.w3.org/2000/svg">
<path d="M11.4406 70.6584C10.9931 70.6584 10.5698 70.4003 10.2921 69.9572C10.0145 69.5149 9.91386 68.9371 10.0177 68.3888C10.6508 65.0506 10.9578 61.6267 10.9323 58.1948C8.28259 58.1266 5.75895 56.7554 3.90243 54.3757C2.04575 51.9952 1.00385 48.7948 1 45.4592V13.7415C1.00327 10.3638 2.07137 7.12508 3.96983 4.73616C5.86833 2.34808 8.44147 1.00421 11.1265 1H52.1001C54.7851 1.00329 57.3589 2.3473 59.2574 4.73616C61.1559 7.12508 62.2232 10.3638 62.2265 13.7415V45.4592C62.2233 48.8378 61.1558 52.0765 59.2574 54.4654C57.3589 56.8543 54.7851 58.1982 52.1001 58.2015H30.5864C26.7451 63.9994 20.4143 68.1745 11.7603 70.6142C11.6558 70.643 11.5484 70.6584 11.4406 70.6584ZM11.1263 4.68315C9.21747 4.68562 7.38771 5.64165 6.03793 7.33997C4.68826 9.03828 3.92921 11.3409 3.92653 13.742V45.4596C3.92915 47.8616 4.68826 50.164 6.03793 51.8625C7.3876 53.5608 9.21747 54.5159 11.1263 54.5193H12.3408C13.1195 54.5176 13.7623 55.2838 13.8041 56.262C13.9459 59.6332 13.7878 63.0142 13.3325 66.341C20.4976 63.9407 25.6683 60.2094 28.723 55.2355C28.9999 54.7842 29.4272 54.5195 29.8806 54.5195H52.0933C54.0021 54.517 55.8319 53.5618 57.1817 51.8635C58.5314 50.1652 59.2904 47.8618 59.2924 45.4598V13.7422C59.2904 11.3402 58.5313 9.03778 57.1817 7.33931C55.832 5.64099 54.0021 4.68587 52.0933 4.68334L11.1263 4.68315Z" fill="white" stroke="white"/>
<path d="M49.6708 14.8696H13.5488C12.7407 14.8696 12.0854 14.0451 12.0854 13.0282C12.0854 12.0114 12.7407 11.1869 13.5488 11.1869H49.6708C50.4795 11.1869 51.1341 12.0114 51.1341 13.0282C51.1341 14.0451 50.4795 14.8696 49.6708 14.8696Z" fill="white" stroke="white"/>
<path d="M49.6708 25.9187H13.5488C12.7407 25.9187 12.0854 25.0942 12.0854 24.0773C12.0854 23.0605 12.7407 22.236 13.5488 22.236H49.6708C50.4795 22.236 51.1341 23.0605 51.1341 24.0773C51.1341 25.0942 50.4795 25.9187 49.6708 25.9187Z" fill="white" stroke="white"/>
<path d="M49.6708 36.9653H13.5488C12.7407 36.9653 12.0854 36.1408 12.0854 35.1239C12.0854 34.1063 12.7407 33.2826 13.5488 33.2826H49.6708C50.4795 33.2826 51.1341 34.1063 51.1341 35.1239C51.1341 36.1408 50.4795 36.9653 49.6708 36.9653Z" fill="white" stroke="white"/>
<path d="M49.6708 48.0091H13.5488C12.7407 48.0091 12.0854 47.1846 12.0854 46.1678C12.0854 45.1509 12.7407 44.3264 13.5488 44.3264H49.6708C50.4795 44.3264 51.1341 45.1509 51.1341 46.1678C51.1341 47.1846 50.4795 48.0091 49.6708 48.0091Z" fill="white" stroke="white"/>
<path d="M75.7966 81C75.6888 81.0008 75.581 80.986 75.4765 80.9564C66.8225 78.5166 60.4956 74.3414 56.6521 68.5438H35.1435C33.1404 68.5479 31.1814 67.8031 29.5155 66.4032C27.8497 65.0033 26.5516 63.0115 25.7873 60.6811C25.4776 59.7415 25.8323 58.6646 26.5784 58.2749C27.3251 57.8853 28.1815 58.3308 28.4913 59.2704C29.0348 60.9268 29.9572 62.3432 31.1417 63.3386C32.3261 64.334 33.7195 64.8643 35.1437 64.861H57.3514C57.8047 64.861 58.2327 65.1257 58.5096 65.577C61.5644 70.5512 66.741 74.2823 73.9002 76.6803C73.4461 73.3534 73.2887 69.9733 73.4318 66.6029C73.4736 65.6255 74.1164 64.8594 74.8951 64.861H76.1154C78.0229 64.8561 79.8522 63.8993 81.2005 62.2009C82.5489 60.5017 83.3074 58.2 83.3092 55.7988V24.0833C83.3066 21.6814 82.5475 19.3789 81.1978 17.6805C79.8481 15.9821 78.0183 15.027 76.1094 15.0237H60.7443C59.9362 15.0237 59.281 14.1991 59.281 13.1823C59.281 12.1654 59.9362 11.3409 60.7443 11.3409H76.1094C78.7944 11.3451 81.3682 12.6882 83.2667 15.0771C85.1652 17.466 86.2332 20.7047 86.2359 24.0833V55.7988C86.2333 59.1347 85.1919 62.3364 83.336 64.7188C81.4793 67.1001 78.9558 68.473 76.3054 68.5412C76.2799 71.9733 76.587 75.397 77.22 78.7352C77.3226 79.2827 77.2206 79.8597 76.9437 80.3012C76.666 80.7426 76.244 80.9999 75.7965 80.9999L75.7966 81Z" fill="white" stroke="white"/>
</svg>
