<?xml version="1.0" encoding="UTF-8"?>
<svg id="Layer_2" data-name="Layer 2" xmlns="http://www.w3.org/2000/svg" viewBox="0 0 206.45 31.94">
  <defs>
    <style>
      .cls-1 {
        fill: #fff;
      }

      .cls-2 {
        fill: #f1ba1f;
      }
    </style>
  </defs>
  <g id="Layer_1-2" data-name="Layer 1">
    <g>
      <path class="cls-2" d="M198.64,10.49c-.03-.52-.15-1.47-.71-2.49-.69-1.25-1.65-1.88-1.89-2.04-.52-.33-.62-.26-1.68-.72-1.93-.84-2.39-1.42-2.64-1.23-.46.34.27,2.82,1.98,4.47,1.77,1.71,4.01,1.97,4.95,2.02Z"/>
      <path class="cls-2" d="M199.14,9.79c-.09-.65-.17-1.86.28-3.26.19-.59.63-1.93,1.86-3,.69-.61.89-.47,2.01-1.2,2.01-1.31,2.49-2.48,2.87-2.31.59.26.37,3.52-1.37,6.02-1.78,2.56-4.49,3.45-5.64,3.75Z"/>
      <g>
        <path class="cls-1" d="M9.19,21.77l-3.38,3.53v6.37s-5.79,0-5.79,0l-.02-25.2h5.8s0,11.77,0,11.77l11.15-11.78h6.48s-10.43,11.23-10.43,11.23l11.06,13.96h-6.8s-8.07-9.89-8.07-9.89Z"/>
        <path class="cls-1" d="M40.54,14.13c1.61,1.43,2.42,3.58,2.42,6.46v11.05s-5.25,0-5.25,0v-2.41c-1.06,1.8-3.02,2.7-5.9,2.7-1.49,0-2.78-.25-3.87-.75-1.09-.5-1.93-1.2-2.5-2.09-.58-.89-.87-1.9-.87-3.02,0-1.8.68-3.22,2.03-4.25,1.35-1.03,3.45-1.55,6.28-1.55h4.46c0-1.23-.37-2.17-1.12-2.83-.74-.66-1.86-.99-3.35-.99-1.03,0-2.05.16-3.04.49-1,.33-1.84.76-2.54,1.32l-2.02-3.92c1.06-.74,2.32-1.32,3.8-1.73,1.48-.41,2.99-.61,4.55-.61,3,0,5.3.71,6.91,2.14ZM35.76,27.49c.74-.44,1.27-1.1,1.58-1.96v-1.98s-3.85,0-3.85,0c-2.3,0-3.46.76-3.45,2.27,0,.72.28,1.29.85,1.71.56.42,1.34.63,2.32.63.96,0,1.81-.22,2.56-.67Z"/>
        <path class="cls-1" d="M78.77,12.25l-7.01,19.37h-5.4s-4.36-12.02-4.36-12.02l-4.49,12.03h-5.4s-7-19.36-7-19.36h5.29s4.58,13.1,4.58,13.1l4.74-13.11h4.75s4.62,13.1,4.62,13.1l4.71-13.11h4.97Z"/>
        <path class="cls-1" d="M95.48,14.09c1.61,1.43,2.42,3.58,2.42,6.46v11.05s-5.25,0-5.25,0v-2.41c-1.06,1.8-3.02,2.7-5.9,2.7-1.49,0-2.78-.25-3.87-.75-1.09-.5-1.93-1.2-2.5-2.09-.58-.89-.87-1.9-.87-3.02,0-1.8.68-3.22,2.03-4.25,1.35-1.03,3.45-1.55,6.28-1.55h4.46c0-1.23-.37-2.17-1.12-2.83-.74-.66-1.86-.99-3.35-.99-1.03,0-2.05.16-3.04.49-1,.33-1.84.76-2.54,1.32l-2.02-3.92c1.06-.74,2.32-1.32,3.8-1.73,1.48-.41,2.99-.61,4.55-.62,3,0,5.3.71,6.91,2.14ZM90.7,27.45c.74-.44,1.27-1.1,1.58-1.96v-1.98s-3.85,0-3.85,0c-2.3,0-3.46.76-3.45,2.27,0,.72.28,1.29.85,1.71.56.42,1.34.63,2.32.63.96,0,1.81-.22,2.56-.67Z"/>
        <path class="cls-1" d="M120.55,14.09c1.48,1.44,2.22,3.58,2.22,6.41v11.09s-5.61,0-5.61,0v-10.22c0-1.54-.35-2.68-1.02-3.44-.67-.76-1.65-1.13-2.92-1.13-1.42,0-2.54.44-3.38,1.32-.84.88-1.26,2.18-1.26,3.91v9.58s-5.61,0-5.61,0V12.23s5.35,0,5.35,0v2.27c.74-.82,1.67-1.45,2.77-1.89,1.1-.44,2.32-.67,3.63-.67,2.4,0,4.34.72,5.82,2.16Z"/>
        <path class="cls-1" d="M133.45,11.13h-8.06s0-4.75,0-4.75l21.96-.02v4.75s-8.06,0-8.06,0v20.45s-5.82,0-5.82,0V11.13Z"/>
        <path class="cls-1" d="M163.84,14.04c1.61,1.43,2.42,3.58,2.42,6.46v11.05s-5.25,0-5.25,0v-2.41c-1.06,1.8-3.02,2.7-5.9,2.7-1.49,0-2.78-.25-3.87-.75-1.09-.5-1.93-1.2-2.5-2.09-.58-.89-.87-1.9-.87-3.02,0-1.8.68-3.22,2.03-4.25,1.35-1.03,3.45-1.55,6.28-1.55h4.46c0-1.23-.37-2.17-1.12-2.83-.75-.66-1.86-.99-3.35-.99-1.03,0-2.05.16-3.04.49-1,.33-1.84.76-2.54,1.32l-2.02-3.92c1.06-.74,2.32-1.32,3.8-1.73s2.99-.61,4.55-.62c3,0,5.3.71,6.91,2.14ZM159.06,27.4c.74-.44,1.27-1.1,1.58-1.96v-1.98s-3.85,0-3.85,0c-2.3,0-3.46.76-3.45,2.27,0,.72.28,1.29.85,1.71.56.42,1.34.63,2.32.63.96,0,1.81-.22,2.56-.67Z"/>
        <path class="cls-1" d="M188.91,14.04c1.48,1.44,2.22,3.58,2.22,6.41v11.09s-5.61,0-5.61,0v-10.22c0-1.54-.35-2.68-1.02-3.44-.67-.76-1.64-1.13-2.92-1.13-1.42,0-2.54.44-3.38,1.32-.84.88-1.26,2.18-1.26,3.91v9.58s-5.61,0-5.61,0V12.18s5.35,0,5.35,0v2.27c.74-.82,1.67-1.45,2.77-1.89,1.1-.44,2.32-.67,3.64-.67,2.4,0,4.34.72,5.82,2.16Z"/>
        <path class="cls-2" d="M196.2,12.17h5.62s.01,19.36.01,19.36h-5.62s-.01-19.36-.01-19.36Z"/>
      </g>
    </g>
  </g>
</svg>