<svg width="91" height="90" viewBox="0 0 91 90" fill="none" xmlns="http://www.w3.org/2000/svg">
<path d="M55.637 60.2971L55.5613 60.3721L55.4971 60.457C54.8579 61.3018 54.5799 62.4598 54.918 63.494C54.572 63.3821 54.2197 63.3338 53.8929 63.3338C53.1786 63.3338 52.3421 63.5649 51.7165 64.1853L52.7728 65.2504L51.7165 64.1853C51.0893 64.8074 50.8527 65.6435 50.8527 66.3613C50.8527 67.0694 51.083 67.8926 51.6913 68.5119L53.9151 70.9008L53.9355 70.9227L53.9568 70.9438C54.5824 71.5643 55.4189 71.7954 56.1332 71.7954C56.6995 71.7954 57.3426 71.6501 57.8966 71.2807C57.5319 71.8286 57.3866 72.4637 57.3866 73.0262C57.3866 73.744 57.6232 74.5801 58.2504 75.2022L60.6775 77.6094C61.3031 78.2299 62.1397 78.461 62.8539 78.461C63.283 78.461 63.7562 78.3776 64.2013 78.1764C64.0034 78.6154 63.9205 79.082 63.9205 79.507C63.9205 80.2249 64.1571 81.061 64.7843 81.683L67.2114 84.0902C67.837 84.7107 68.6735 84.9418 69.3878 84.9418C70.072 84.9418 70.8684 84.7297 71.4841 84.1665C72.1526 83.6351 72.5682 82.8621 72.5682 81.9835C72.5682 81.5796 72.4808 81.1966 72.3295 80.8442C72.7199 80.9911 73.124 81.0535 73.4952 81.0535C74.2095 81.0535 75.046 80.8224 75.6716 80.202C76.2988 79.5799 76.5353 78.7438 76.5353 78.026C76.5353 77.6978 76.4859 77.345 76.3723 76.9991C76.7241 77.1152 77.0831 77.1653 77.4156 77.1653C78.1299 77.1653 78.9664 76.9342 79.592 76.3137C80.2192 75.6917 80.4558 74.8556 80.4558 74.1378C80.4558 73.4199 80.2192 72.5839 79.592 71.9618L77.1649 69.5546C76.5393 68.9341 75.7027 68.703 74.9885 68.703C74.5595 68.703 74.0864 68.7864 73.6414 68.9874C73.8391 68.5486 73.9219 68.0824 73.9219 67.6576C73.9219 66.9398 73.6853 66.1037 73.0582 65.4816L70.631 63.0744C70.0054 62.4539 69.1689 62.2228 68.4546 62.2228C67.7403 62.2228 66.9038 62.4539 66.2782 63.0744C65.3598 63.9853 65.2374 65.2265 65.6131 66.2893C65.2499 66.1646 64.8779 66.1111 64.5341 66.1111C63.9678 66.1111 63.3247 66.2563 62.7708 66.6257C63.1354 66.0779 63.2807 65.4428 63.2807 64.8803C63.2807 64.571 63.2368 64.2397 63.1366 63.9131C63.4212 63.9864 63.7062 64.0189 63.9741 64.0189C64.6884 64.0189 65.5249 63.7878 66.1505 63.1673C66.7777 62.5453 67.0142 61.7092 67.0142 60.9914C67.0142 60.2736 66.7777 59.4375 66.1505 58.8154L63.7233 56.4082C63.0977 55.7877 62.2612 55.5566 61.5469 55.5566C60.8326 55.5566 59.9961 55.7877 59.3705 56.4082C58.7433 57.0302 58.5067 57.8663 58.5067 58.5842C58.5067 58.8935 58.5507 59.2247 58.6508 59.5513C58.3662 59.478 58.0812 59.4455 57.8134 59.4455C57.0991 59.4455 56.2626 59.6766 55.637 60.2971ZM59.1944 68.852C59.2147 68.4895 59.183 68.0898 59.078 67.6996C59.4674 67.8457 59.8704 67.9078 60.2405 67.9078C60.767 67.9078 61.3599 67.7822 61.8858 67.4677C61.3146 68.2684 61.2033 69.3019 61.5521 70.1932C61.1743 70.0569 60.7852 69.9987 60.4268 69.9987C59.8606 69.9987 59.2176 70.1439 58.6638 70.5131C59.023 69.9745 59.1657 69.3629 59.1944 68.852ZM65.5684 76.7847C65.9193 76.0253 66.0114 75.1393 65.7229 74.3355C66.1356 74.5029 66.5671 74.5733 66.9613 74.5733C67.3903 74.5733 67.8633 74.49 68.3083 74.289C68.1107 74.7278 68.0278 75.194 68.0278 75.6188C68.0278 75.9721 68.0852 76.3541 68.2182 76.7252C67.7997 76.5521 67.361 76.4795 66.9607 76.4795C66.5171 76.4795 66.0264 76.5686 65.5684 76.7847ZM71.068 72.5913C70.639 72.5913 70.166 72.6746 69.721 72.8756C69.9186 72.4369 70.0015 71.9706 70.0015 71.5458C70.0015 71.2177 69.952 70.8648 69.8384 70.5189C70.1903 70.635 70.5493 70.6851 70.8817 70.6851C71.3252 70.6851 71.8158 70.596 72.2738 70.38C71.9343 71.1151 71.8372 71.9687 72.0931 72.7515C71.7471 72.6396 71.3948 72.5913 71.068 72.5913ZM82.9398 73.3973L68.8281 87.3931L48.3684 67.1015L62.4801 53.1057L82.9398 73.3973Z" stroke="white" stroke-width="3"/>
<path d="M26.2569 26.4852C26.2569 26.8084 26.3127 27.1181 26.4125 27.4095C26.048 27.2838 25.6744 27.2299 25.3294 27.2299C24.7673 27.2299 24.1295 27.373 23.5784 27.7364C24.1283 26.9304 24.1905 25.9603 23.9212 25.0925C24.3289 25.2552 24.7541 25.3237 25.1431 25.3237C25.6652 25.3237 26.2526 25.2002 26.7752 24.8915C26.4463 25.3467 26.2569 25.892 26.2569 26.4852ZM22.7992 28.5119C22.4345 29.0597 22.2892 29.6949 22.2892 30.2574C22.2892 30.653 22.3611 31.0846 22.5306 31.4964C22.1541 31.3612 21.7666 31.3035 21.4096 31.3035C20.8259 31.3035 20.1607 31.4578 19.5956 31.8527C20.1553 30.974 20.3472 29.8334 19.9323 28.8398C20.3032 28.9706 20.6843 29.0266 21.0358 29.0266C21.6021 29.0266 22.2452 28.8813 22.7992 28.5119ZM15.5685 23.5918C15.5685 23.9875 15.6403 24.419 15.8098 24.8309C15.4334 24.6957 15.0458 24.6379 14.6888 24.6379C14.1221 24.6379 13.4785 24.7834 12.9243 25.1534C13.2893 24.6053 13.4348 23.9699 13.4348 23.4071C13.4348 23.0789 13.3853 22.726 13.2717 22.3802C13.6236 22.4963 13.9825 22.5464 14.315 22.5464C14.8245 22.5464 15.3963 22.4288 15.9092 22.1362C15.668 22.6107 15.5685 23.1261 15.5685 23.5918ZM10.3946 26.4346C10.9613 26.4346 11.6049 26.2892 12.1591 25.9192C11.7941 26.4672 11.6486 27.1027 11.6486 27.6654C11.6486 28.3832 11.8852 29.2192 12.5123 29.8413C12.5123 29.8413 12.5124 29.8414 12.5124 29.8414L14.9388 32.2485L14.9389 32.2486C15.5645 32.8691 16.401 33.1002 17.1153 33.1002C17.6286 33.1002 18.2048 32.9809 18.7207 32.6836H18.817C18.498 33.2082 18.3694 33.8018 18.3694 34.331C18.3694 35.0488 18.606 35.8849 19.2332 36.507L21.6603 38.9142C22.286 39.5346 23.1225 39.7657 23.8368 39.7657C24.551 39.7657 25.3876 39.5346 26.0132 38.9142C26.6404 38.2921 26.8769 37.4561 26.8769 36.7382C26.8769 36.3426 26.8051 35.911 26.6355 35.4992C27.012 35.6344 27.3996 35.6921 27.7566 35.6921C28.4709 35.6921 29.3074 35.461 29.933 34.8406C30.8135 33.9673 30.9623 32.7903 30.6419 31.7581C31.0496 31.9207 31.4749 31.9893 31.8639 31.9893C32.5782 31.9893 33.4147 31.7582 34.0403 31.1377C34.6675 30.5156 34.9041 29.6796 34.9041 28.9617C34.9041 28.2439 34.6675 27.4078 34.0403 26.7858L31.6132 24.3786C30.9876 23.7581 30.1511 23.527 29.4368 23.527C28.8704 23.527 28.2273 23.6723 27.6734 24.0417C28.038 23.4938 28.1833 22.8587 28.1833 22.2962C28.1833 21.5783 27.9467 20.7423 27.3195 20.1202L24.8924 17.713C24.2668 17.0925 23.4303 16.8614 22.716 16.8614C22.1497 16.8614 21.5065 17.0067 20.9526 17.3761C21.3173 16.8283 21.4625 16.1931 21.4625 15.6306C21.4625 14.9128 21.226 14.0767 20.5988 13.4547L18.1716 11.0474C17.546 10.427 16.7095 10.1959 15.9952 10.1959C15.2809 10.1959 14.4444 10.427 13.8188 11.0474L13.743 11.1227L13.6785 11.2079C13.0398 12.0528 12.7618 13.2103 13.0998 14.2443C12.7538 14.1325 12.4015 14.0841 12.0748 14.0841C11.3605 14.0841 10.524 14.3152 9.89836 14.9357L9.82251 15.0109L9.75809 15.0961C9.10332 15.9622 8.82762 17.1569 9.20603 18.2103C8.79327 18.0428 8.36172 17.9724 7.96742 17.9724C7.25312 17.9724 6.41662 18.2035 5.79101 18.8239C5.16382 19.446 4.92724 20.2821 4.92724 20.9999C4.92724 21.7177 5.16382 22.5538 5.79101 23.1758L8.21817 25.5831C8.84378 26.2035 9.68028 26.4346 10.3946 26.4346ZM18.4224 18.6581C18.9845 18.6581 19.6223 18.515 20.1735 18.1516C19.6237 18.9575 19.5612 19.9276 19.8305 20.7955C19.4228 20.6328 18.9976 20.5643 18.6086 20.5643C18.0991 20.5643 17.5274 20.6819 17.0144 20.9745C17.2556 20.5 17.3552 19.9846 17.3552 19.5189C17.3552 19.1655 17.2979 18.7835 17.1649 18.4125C17.5833 18.5855 18.022 18.6581 18.4224 18.6581ZM16.7419 7.74458L37.2015 28.0362L23.0898 42.032L2.63012 21.7404L16.7419 7.74458Z" stroke="white" stroke-width="3"/>
<path d="M87.6569 9.71839C86.4851 10.7164 84.9721 11.1951 83.3051 11.3606L82.7752 11.4133L82.3971 11.7883L76.4233 17.713L75.3494 18.778L76.4233 19.843L85.9055 29.2473C80.6795 33.3043 73.7462 33.9939 67.8331 31.2996L66.8904 30.8701L66.1549 31.5996L61.1143 36.5987L60.0405 37.6638L61.1143 38.7288L62.0475 39.6543L62.0707 39.6773L62.0948 39.6993C63.6533 41.116 63.7233 43.6388 62.0475 45.3008L40.5779 66.5941C39.1334 68.0267 36.4967 68.0895 34.8022 66.5492L33.7483 65.5911L32.737 66.5941L32.5669 66.7628C29.9078 69.231 26.0161 69.2733 23.68 66.8119C21.2249 64.2251 21.2699 60.3444 23.6482 57.9856L23.8352 57.8002L24.909 56.7352L23.8352 55.6702C22.1872 54.0358 22.1865 51.6609 23.833 50.0258C23.8337 50.0251 23.8345 50.0244 23.8352 50.0237L45.6731 28.5509L45.6986 28.5257L45.723 28.4994C47.1579 26.9467 49.7237 26.8779 51.406 28.5464L52.3392 29.4719L53.3955 30.5195L54.4518 29.4719L59.4924 24.4727L60.2393 23.7319L59.7972 22.7773C57.083 16.9177 57.7792 10.0451 61.8795 4.86488L71.3814 14.2887L72.4377 15.3363L73.494 14.2887L79.4678 8.36399L79.9758 7.86018L79.9039 7.14834C79.7559 5.68238 80.2056 4.29945 81.148 3.36482C82.9903 1.53757 85.7809 1.53757 87.6233 3.36482C89.4475 5.17407 89.4587 7.89788 87.6569 9.71839Z" stroke="white" stroke-width="3"/>
</svg>
